<svg width="91" height="42" viewBox="0 0 91 42" fill="none" xmlns="http://www.w3.org/2000/svg">
<rect x="1.13281" y="0.5" width="88.7273" height="41" rx="3.5" stroke="#E4E5EA"/>
<path d="M17.6953 14.7643C19.3256 14.4112 18.106 14.6889 20.8583 13.9559C22.1508 13.6116 23.4396 13.253 24.737 12.9281C25.1145 12.8336 29.1814 11.6961 30.3745 11.8867C31.1495 12.0105 29.0686 14.1027 29.0111 14.1751C28.4409 14.8935 27.8536 15.639 27.4637 16.4772C27.3572 16.7061 26.9597 17.6135 27.3478 17.8201C27.6947 18.0047 28.3773 17.8532 28.6975 17.8201C30.3469 17.6494 31.9952 17.4788 33.6465 17.3268C36.5764 17.057 39.5078 16.8074 42.4401 16.5663C43.161 16.507 43.7616 16.3257 43.1763 17.0938C42.7192 17.6937 39.5828 21.8014 41.3426 21.9652C44.9191 22.298 48.5653 21.2065 52.1471 21.5747C52.8697 21.6489 52.7725 22.6369 53.2446 23.1573C53.8227 23.7945 54.6061 23.949 55.4328 24.0138C58.143 24.226 60.9667 23.8887 63.6402 23.4657C65.7833 23.1265 67.9974 22.6295 70.0206 21.8213C70.4415 21.6532 70.8334 21.4484 71.1931 21.1773" stroke="#404251" stroke-width="2" stroke-linecap="round"/>
</svg>
