<svg width="15" height="13" viewBox="0 0 15 13" fill="none" xmlns="http://www.w3.org/2000/svg">
<path d="M2.16927 1.66671H4.16927L5.5026 0.333374H9.5026L10.8359 1.66671H12.8359C13.1896 1.66671 13.5287 1.80718 13.7787 2.05723C14.0288 2.30728 14.1693 2.64642 14.1693 3.00004V11C14.1693 11.3537 14.0288 11.6928 13.7787 11.9429C13.5287 12.1929 13.1896 12.3334 12.8359 12.3334H2.16927C1.81565 12.3334 1.47651 12.1929 1.22646 11.9429C0.976413 11.6928 0.835938 11.3537 0.835938 11V3.00004C0.835937 2.64642 0.976413 2.30728 1.22646 2.05723C1.47651 1.80718 1.81565 1.66671 2.16927 1.66671ZM7.5026 3.66671C6.61855 3.66671 5.7707 4.0179 5.14558 4.64302C4.52046 5.26814 4.16927 6.11599 4.16927 7.00004C4.16927 7.8841 4.52046 8.73194 5.14558 9.35706C5.7707 9.98218 6.61855 10.3334 7.5026 10.3334C8.38666 10.3334 9.2345 9.98218 9.85963 9.35706C10.4847 8.73194 10.8359 7.8841 10.8359 7.00004C10.8359 6.11599 10.4847 5.26814 9.85963 4.64302C9.2345 4.0179 8.38666 3.66671 7.5026 3.66671ZM7.5026 5.00004C8.03304 5.00004 8.54174 5.21075 8.91682 5.58583C9.29189 5.9609 9.5026 6.46961 9.5026 7.00004C9.5026 7.53047 9.29189 8.03918 8.91682 8.41426C8.54174 8.78933 8.03304 9.00004 7.5026 9.00004C6.97217 9.00004 6.46346 8.78933 6.08839 8.41426C5.71332 8.03918 5.5026 7.53047 5.5026 7.00004C5.5026 6.46961 5.71332 5.9609 6.08839 5.58583C6.46346 5.21075 6.97217 5.00004 7.5026 5.00004Z" fill="#80808E"/>
</svg>
