<svg width="16" height="16" viewBox="0 0 16 16" fill="none" xmlns="http://www.w3.org/2000/svg">
<path d="M14.1673 7.9996H5.93065M3.02332 7.9996H1.83398M3.02332 7.9996C3.02332 7.61415 3.17644 7.24449 3.44899 6.97194C3.72154 6.69939 4.0912 6.54627 4.47665 6.54627C4.8621 6.54627 5.23176 6.69939 5.50431 6.97194C5.77687 7.24449 5.92998 7.61415 5.92998 7.9996C5.92998 8.38505 5.77687 8.75471 5.50431 9.02726C5.23176 9.29982 4.8621 9.45294 4.47665 9.45294C4.0912 9.45294 3.72154 9.29982 3.44899 9.02726C3.17644 8.75471 3.02332 8.38505 3.02332 7.9996ZM14.1673 12.4043H10.3353M10.3353 12.4043C10.3353 12.7898 10.1818 13.1599 9.90921 13.4325C9.6366 13.7051 9.26685 13.8583 8.88132 13.8583C8.49587 13.8583 8.12621 13.7045 7.85366 13.4319C7.5811 13.1594 7.42798 12.7897 7.42798 12.4043M10.3353 12.4043C10.3353 12.0187 10.1818 11.6493 9.90921 11.3767C9.6366 11.1041 9.26685 10.9509 8.88132 10.9509C8.49587 10.9509 8.12621 11.1041 7.85366 11.3766C7.5811 11.6492 7.42798 12.0188 7.42798 12.4043M7.42798 12.4043H1.83398M14.1673 3.59493H12.0973M9.18998 3.59493H1.83398M9.18998 3.59493C9.18998 3.20949 9.3431 2.83983 9.61566 2.56727C9.88821 2.29472 10.2579 2.1416 10.6433 2.1416C10.8342 2.1416 11.0232 2.17919 11.1995 2.25223C11.3758 2.32527 11.536 2.43232 11.671 2.56727C11.8059 2.70223 11.913 2.86244 11.986 3.03877C12.0591 3.21509 12.0966 3.40408 12.0966 3.59493C12.0966 3.78579 12.0591 3.97478 11.986 4.1511C11.913 4.32743 11.8059 4.48764 11.671 4.6226C11.536 4.75755 11.3758 4.8646 11.1995 4.93764C11.0232 5.01068 10.8342 5.04827 10.6433 5.04827C10.2579 5.04827 9.88821 4.89515 9.61566 4.6226C9.3431 4.35004 9.18998 3.98038 9.18998 3.59493Z" stroke="#ABAFB7" stroke-width="1.25" stroke-miterlimit="10" stroke-linecap="round"/>
</svg>
