<svg width="20" height="18" viewBox="0 0 20 18" fill="none" xmlns="http://www.w3.org/2000/svg">
<path d="M9.21003 15.7692L9.20888 15.7682C6.83273 13.6135 4.92494 11.8793 3.60183 10.2606C2.28752 8.65261 1.63398 7.25658 1.63398 5.79167C1.63398 3.40195 3.49319 1.55 5.87565 1.55C7.22881 1.55 8.54079 2.18407 9.39358 3.17769L10.0007 3.88501L10.6077 3.17769C11.4605 2.18407 12.7725 1.55 14.1257 1.55C16.5081 1.55 18.3673 3.40195 18.3673 5.79167C18.3673 7.25658 17.7138 8.65261 16.3995 10.2606C15.0764 11.8793 13.1686 13.6135 10.7924 15.7682L10.7913 15.7693L10.0007 16.489L9.21003 15.7692Z" stroke="#404251" stroke-width="1.6"/>
</svg>
