<svg width="15" height="15" viewBox="0 0 15 15" fill="none" xmlns="http://www.w3.org/2000/svg">
<path d="M6.40698 13.2335C6.76503 13.529 7.13844 13.799 7.52072 14.0625C7.90382 13.8025 8.27542 13.5259 8.63446 13.2335C9.23298 12.7421 9.79626 12.2092 10.3201 11.6389C11.5278 10.3183 12.8383 8.40399 12.8383 6.25509C12.8383 5.55678 12.7008 4.8653 12.4335 4.22014C12.1663 3.57498 11.7746 2.98877 11.2808 2.49499C10.787 2.0012 10.2008 1.60951 9.55567 1.34228C8.91051 1.07504 8.21903 0.9375 7.52072 0.9375C6.8224 0.9375 6.13092 1.07504 5.48576 1.34228C4.8406 1.60951 4.2544 2.0012 3.76061 2.49499C3.26683 2.98877 2.87514 3.57498 2.6079 4.22014C2.34067 4.8653 2.20312 5.55678 2.20313 6.25509C2.20312 8.40399 3.51362 10.3177 4.7213 11.6389C5.24515 12.2094 5.80843 12.7419 6.40698 13.2335ZM7.52072 8.17533C7.01144 8.17533 6.52302 7.97302 6.1629 7.61291C5.80279 7.25279 5.60048 6.76437 5.60048 6.25509C5.60048 5.74581 5.80279 5.25739 6.1629 4.89728C6.52302 4.53716 7.01144 4.33485 7.52072 4.33485C8.03 4.33485 8.51842 4.53716 8.87853 4.89728C9.23865 5.25739 9.44096 5.74581 9.44096 6.25509C9.44096 6.76437 9.23865 7.25279 8.87853 7.61291C8.51842 7.97302 8.03 8.17533 7.52072 8.17533Z" fill="#ABAFB7"/>
</svg>
