<svg width="16" height="16" viewBox="0 0 16 16" fill="none" xmlns="http://www.w3.org/2000/svg">
<path d="M5.51999 3.48711L13.6951 11.6563C13.7984 11.541 13.8531 11.3831 13.8531 11.2135C13.8531 10.6062 13.2401 10.0601 12.7121 9.51992C12.3115 9.10119 12.202 8.2394 12.1536 7.54152C12.1111 5.21095 11.4922 3.6026 9.87763 3.01996C9.65312 2.23093 9.02205 1.59961 8.1297 1.59961C7.23166 1.59961 6.60655 2.23093 6.37582 3.01996C6.06517 3.12386 5.77541 3.28203 5.51999 3.48711ZM13.5617 13.8778C13.6496 13.9653 13.7685 14.0145 13.8926 14.0145C14.0166 14.0145 14.1355 13.9653 14.2234 13.8778C14.4054 13.7017 14.4054 13.3985 14.2234 13.2165L3.54755 2.55255C3.45846 2.46509 3.3386 2.4161 3.21376 2.4161C3.08892 2.4161 2.96906 2.46509 2.87997 2.55255C2.70388 2.72864 2.70388 3.03187 2.87997 3.21418L13.5617 13.8778ZM3.31682 11.9476H10.6304L4.30628 5.61751C4.17887 6.18202 4.11206 6.82526 4.09989 7.54152C4.05121 8.2394 3.94193 9.10119 3.54159 9.51992C3.01954 10.0601 2.40039 10.6062 2.40039 11.2135C2.40039 11.6503 2.74609 11.9476 3.31682 11.9476ZM8.12996 14.3996C9.15567 14.3996 9.90223 13.659 9.98121 12.7731H6.27872C6.35148 13.6593 7.09804 14.3994 8.1297 14.3994" fill="#80808E"/>
</svg>
