<svg width="15" height="15" viewBox="0 0 15 15" fill="none" xmlns="http://www.w3.org/2000/svg">
<path d="M9.20983 1H5.84378L5.45763 2.9319C5.13792 3.07517 4.83391 3.25118 4.55047 3.4571L2.68243 2.82507L1 5.73993L2.48071 7.04099C2.44495 7.38942 2.44495 7.74058 2.48071 8.08901L1 9.39007L2.68303 12.3049L4.55047 11.6735C4.83217 11.8776 5.13535 12.0543 5.45763 12.1981L5.84378 14.13H9.20983L9.59597 12.1981C9.91568 12.0548 10.2197 11.8788 10.5031 11.6729L12.3712 12.3049L14.0542 9.39007L12.5729 8.08901C12.6087 7.74058 12.6087 7.38942 12.5729 7.04099L14.0536 5.73993L12.3706 2.82507L10.5037 3.4565C10.2203 3.25079 9.91626 3.07498 9.59657 2.9319L9.20983 1ZM7.5268 9.95227C6.89366 9.95227 6.28645 9.70076 5.83875 9.25306C5.39105 8.80536 5.13953 8.19814 5.13953 7.565C5.13953 6.93186 5.39105 6.32464 5.83875 5.87694C6.28645 5.42924 6.89366 5.17773 7.5268 5.17773C8.15995 5.17773 8.76716 5.42924 9.21486 5.87694C9.66256 6.32464 9.91408 6.93186 9.91408 7.565C9.91408 8.19814 9.66256 8.80536 9.21486 9.25306C8.76716 9.70076 8.15995 9.95227 7.5268 9.95227Z" fill="#ABAFB7"/>
</svg>
