<svg width="18" height="18" viewBox="0 0 18 18" fill="none" xmlns="http://www.w3.org/2000/svg">
<path d="M6.61084 6.33818L2.54569 6.92757L2.47369 6.94222C2.36469 6.97116 2.26533 7.0285 2.18574 7.1084C2.10616 7.18829 2.0492 7.28788 2.0207 7.39699C1.99219 7.5061 1.99315 7.62082 2.02348 7.72943C2.05381 7.83805 2.11242 7.93667 2.19333 8.01522L5.13834 10.8819L4.44382 14.9311L4.43554 15.0012C4.42887 15.1139 4.45227 15.2264 4.50337 15.3271C4.55446 15.4278 4.63139 15.5131 4.7263 15.5743C4.82121 15.6355 4.93068 15.6704 5.04349 15.6754C5.15631 15.6804 5.26843 15.6553 5.36836 15.6027L9.00406 13.6911L12.6315 15.6027L12.6952 15.632C12.8004 15.6734 12.9147 15.6861 13.0264 15.6688C13.1381 15.6515 13.2432 15.6047 13.3308 15.5334C13.4185 15.462 13.4856 15.3687 13.5253 15.2628C13.565 15.157 13.5758 15.0425 13.5567 14.9311L12.8615 10.8819L15.8078 8.01458L15.8575 7.96042C15.9285 7.87298 15.975 7.76829 15.9924 7.657C16.0097 7.54571 15.9973 7.43181 15.9563 7.3269C15.9153 7.22199 15.8472 7.12983 15.759 7.05979C15.6708 6.98975 15.5656 6.94435 15.4542 6.9282L11.389 6.33818L9.57178 2.65533C9.5192 2.54862 9.4378 2.45877 9.33679 2.39594C9.23578 2.33311 9.1192 2.2998 9.00024 2.2998C8.88128 2.2998 8.7647 2.33311 8.66369 2.39594C8.56268 2.45877 8.48128 2.54862 8.4287 2.65533L6.61084 6.33818Z" fill="#FFA813"/>
</svg>
